<svg xmlns="http://www.w3.org/2000/svg" xmlns:xlink="http://www.w3.org/1999/xlink" viewBox="0 0 204.14 56.12"><defs><style>.cls-1{fill:url(#linear-gradient);}.cls-2{fill:url(#linear-gradient-2);}.cls-3{fill:#5a70f2;}.cls-4{opacity:0.66;}.cls-5{fill:url(#linear-gradient-3);}</style><linearGradient id="linear-gradient" x1="149.08" x2="149.08" y2="56.12" gradientUnits="userSpaceOnUse"><stop offset="0" stop-color="#5a70f2"/><stop offset="0.38" stop-color="#5b6df1"/><stop offset="0.65" stop-color="#5e64ef"/><stop offset="0.89" stop-color="#6355eb"/><stop offset="1" stop-color="#664ae9"/></linearGradient><linearGradient id="linear-gradient-2" x1="64.12" x2="64.12" y2="56.12" xlink:href="#linear-gradient"/><linearGradient id="linear-gradient-3" x1="102.07" x2="102.07" y2="56.12" xlink:href="#linear-gradient"/></defs><g id="Layer_2" data-name="Layer 2"><g id="Layer_1-2" data-name="Layer 1"><polygon className="cls-1" points="193.34 45.31 193.34 45.31 148.02 0 132.74 0 178.06 45.31 131.95 45.31 120.1 33.46 150.97 33.46 140.16 22.66 109.3 22.66 94.02 22.66 120.61 49.24 120.61 49.24 127.48 56.12 142.76 56.12 188.86 56.12 204.14 56.12 204.14 56.12 193.34 45.31"/><polygon className="cls-2" points="101.51 45.31 89.65 33.46 89.65 33.46 78.85 22.66 63.57 22.66 48.74 22.66 60.59 10.8 128.24 10.8 117.43 0 56.12 0 45.31 10.8 45.31 10.8 33.46 22.66 33.46 22.66 22.66 33.46 22.66 33.46 37.94 33.46 74.37 33.46 86.23 45.31 10.8 45.31 0 56.12 97.03 56.12 112.31 56.12 101.51 45.31 101.51 45.31"/><polygon className="cls-3" points="193.34 45.31 193.34 45.31 148.02 0 132.74 0 178.06 45.31 131.95 45.31 120.1 33.46 150.97 33.46 140.16 22.66 109.3 22.66 94.02 22.66 120.61 49.24 120.61 49.24 127.48 56.12 142.76 56.12 188.86 56.12 204.14 56.12 204.14 56.12 193.34 45.31"/><polygon className="cls-3" points="101.51 45.31 89.65 33.46 89.65 33.46 78.85 22.66 63.57 22.66 48.74 22.66 60.59 10.8 128.24 10.8 117.43 0 56.12 0 45.31 10.8 45.31 10.8 33.46 22.66 33.46 22.66 22.66 33.46 22.66 33.46 37.94 33.46 74.37 33.46 86.23 45.31 10.8 45.31 0 56.12 97.03 56.12 112.31 56.12 101.51 45.31 101.51 45.31"/><g className="cls-4"><polygon className="cls-5" points="193.34 45.31 193.34 45.31 148.02 0 132.74 0 178.06 45.31 131.95 45.31 120.1 33.46 150.97 33.46 140.16 22.66 109.3 22.66 94.02 22.66 120.61 49.24 120.61 49.24 127.48 56.12 142.76 56.12 188.86 56.12 204.14 56.12 204.14 56.12 193.34 45.31"/><polygon className="cls-5" points="101.51 45.31 89.65 33.46 89.65 33.46 78.85 22.66 63.57 22.66 48.74 22.66 60.59 10.8 128.24 10.8 117.43 0 56.12 0 45.31 10.8 45.31 10.8 33.46 22.66 33.46 22.66 22.66 33.46 22.66 33.46 37.94 33.46 74.37 33.46 86.23 45.31 10.8 45.31 0 56.12 97.03 56.12 112.31 56.12 101.51 45.31 101.51 45.31"/></g></g></g></svg>