<svg xmlns="http://www.w3.org/2000/svg" enable-background="new 0 0 512 512" viewBox="0 0 512 512"><path fill="#474747" d="M433.377,93.544H73.55c-4.143,0-7.5-3.358-7.5-7.5c0-4.142,3.357-7.5,7.5-7.5h359.827
		c4.143,0,7.5,3.358,7.5,7.5C440.877,90.186,437.519,93.544,433.377,93.544z"/><path fill="#474747" d="M444.344,111.045H69.151c-13.271,0-24.069-10.797-24.069-24.069S55.88,62.908,69.151,62.908h381.91
			c4.143,0,7.5-3.358,7.5-7.5s-3.357-7.5-7.5-7.5H69.151c-21.543,0-39.069,17.526-39.069,39.068c0,0,0,0,0,0v325.978
			c0,25.745,20.945,46.69,46.69,46.69h367.571c23.645,0,42.881-19.236,42.881-42.881V153.927
			C487.225,130.281,467.988,111.045,444.344,111.045z M414.11,314.413c-19.635,0-35.609-15.974-35.609-35.609
			s15.975-35.609,35.609-35.609s35.609,15.974,35.609,35.609S433.745,314.413,414.11,314.413z"/></svg>